<?xml version="1.0" standalone="no"?>
<!DOCTYPE svg PUBLIC "-//W3C//DTD SVG 20010904//EN"
 "http://www.w3.org/TR/2001/REC-SVG-20010904/DTD/svg10.dtd">
<svg version="1.0" xmlns="http://www.w3.org/2000/svg"
 width="512.000000pt" height="512.000000pt" viewBox="0 0 512.000000 512.000000"
 preserveAspectRatio="xMidYMid meet">
<metadata>
Created by potrace 1.11, written by Peter Selinger 2001-2013
</metadata>
<g transform="translate(0.000000,512.000000) scale(0.100000,-0.100000)"
fill="#000000" stroke="none">
<path d="M2350 5104 c-424 -49 -735 -145 -1047 -324 -229 -132 -394 -261 -583
-456 -367 -379 -603 -861 -686 -1399 -26 -170 -26 -560 0 -730 66 -431 230
-824 489 -1172 103 -138 360 -395 500 -500 346 -258 741 -423 1172 -489 170
-26 560 -26 730 0 431 66 826 231 1172 489 140 105 397 362 500 500 259 348
423 741 489 1172 26 170 26 560 0 730 -122 792 -577 1457 -1269 1855 -262 150
-575 258 -887 305 -100 16 -499 28 -580 19z m347 -1513 c14 -30 27 -76 30
-103 3 -26 10 -48 16 -48 5 0 33 13 61 29 109 62 308 62 425 1 77 -41 155
-111 193 -175 l32 -54 76 6 c289 21 539 -145 635 -422 24 -69 28 -96 28 -190
0 -90 -5 -124 -25 -190 -14 -44 -28 -89 -31 -100 -5 -18 -37 -109 -92 -255
-22 -59 -108 -238 -156 -323 -22 -38 -39 -74 -39 -81 0 -6 19 -26 42 -44 37
-29 49 -32 109 -32 55 0 77 5 125 31 33 17 69 39 80 50 21 20 21 20 28 -3 10
-38 7 -65 -15 -133 -39 -117 -132 -196 -269 -229 -120 -29 -327 -15 -565 39
-74 16 -182 33 -435 65 -215 28 -565 28 -775 0 -82 -11 -186 -25 -230 -31 -44
-5 -123 -19 -175 -30 -269 -57 -476 -73 -583 -45 -141 38 -226 106 -267 212
-21 56 -31 157 -16 171 3 4 19 -5 34 -19 54 -52 119 -78 192 -78 58 0 72 4
108 29 22 16 43 34 46 40 4 6 -10 39 -31 73 -38 62 -88 161 -136 268 -30 68
-127 327 -127 340 0 5 -11 44 -25 86 -33 102 -35 279 -4 364 11 30 23 64 26
75 14 44 98 158 155 209 123 112 290 166 465 153 l72 -5 31 54 c35 60 108 127
190 172 115 64 315 64 426 1 28 -16 56 -29 62 -29 6 0 13 21 17 48 7 55 58
163 117 247 l43 61 54 -76 c30 -41 65 -99 78 -129z"/>
<path d="M2071 3148 c-129 -64 -151 -300 -62 -688 26 -115 126 -394 179 -498
l27 -54 60 7 c33 3 75 8 93 12 l32 5 0 552 0 552 -37 36 c-49 48 -156 98 -208
98 -22 0 -60 -10 -84 -22z"/>
<path d="M2875 3141 c-33 -16 -79 -46 -102 -66 l-43 -37 0 -553 0 -553 38 -6
c20 -3 63 -8 94 -12 65 -7 60 -11 120 130 127 302 206 644 196 839 -6 96 -33
194 -65 230 -26 29 -92 57 -138 57 -24 0 -64 -12 -100 -29z"/>
<path d="M1447 2906 c-77 -28 -117 -64 -150 -134 -31 -66 -32 -70 -31 -207 0
-130 3 -147 32 -235 18 -52 44 -124 59 -160 29 -70 128 -265 147 -290 6 -8 19
-31 29 -50 10 -19 27 -46 38 -59 l20 -24 77 28 c42 15 102 35 132 43 30 9 56
16 57 17 1 1 -11 35 -28 76 -60 148 -142 421 -159 534 -5 33 -17 98 -26 145
-9 47 -19 139 -23 205 l-6 120 -65 2 c-36 2 -82 -4 -103 -11z"/>
<path d="M3518 2914 c-5 -4 -8 -48 -8 -98 0 -84 -5 -122 -40 -321 -19 -108
-67 -302 -99 -395 -44 -130 -78 -220 -85 -227 -3 -4 -6 -13 -6 -22 0 -12 37
-28 135 -60 74 -24 136 -42 138 -40 14 25 34 60 47 85 9 16 25 43 36 60 42 61
168 330 184 392 5 20 18 69 30 107 17 58 20 91 18 195 -3 115 -5 130 -32 182
-50 99 -115 139 -235 146 -42 2 -79 1 -83 -4z"/>
</g>
</svg>
